<svg xmlns="http://www.w3.org/2000/svg" width="960" height="720" viewBox="0 0 960 720" role="img" aria-labelledby="title desc">
  <title id="title">Interstate route network illustration</title>
  <desc id="desc">Stylised Adelaide interstate network illustration linking local pickup to east coast destinations.</desc>
  <defs>
    <linearGradient id="panel" x1="0" y1="0" x2="1" y2="1">
      <stop offset="0%" stop-color="#081527"/>
      <stop offset="100%" stop-color="#173A61"/>
    </linearGradient>
    <linearGradient id="route" x1="0" y1="0" x2="1" y2="0">
      <stop offset="0%" stop-color="#FFB800"/>
      <stop offset="100%" stop-color="#FFD466"/>
    </linearGradient>
  </defs>
  <rect width="960" height="720" rx="36" fill="#F8FBFF"/>
  <rect x="70" y="70" width="820" height="580" rx="36" fill="url(#panel)"/>
  <circle cx="188" cy="550" r="136" fill="#0F2741" opacity=".9"/>
  <circle cx="754" cy="160" r="108" fill="#FFB800" opacity=".14"/>
  <path d="M216 522C292 462 360 396 430 286C482 206 548 170 616 154" fill="none" stroke="url(#route)" stroke-width="14" stroke-linecap="round"/>
  <path d="M216 522C304 534 394 554 502 584C588 608 674 616 754 602" fill="none" stroke="#FFFFFF" stroke-opacity=".28" stroke-width="10" stroke-linecap="round"/>
  <path d="M616 154C674 130 736 122 792 130" fill="none" stroke="#FFFFFF" stroke-opacity=".35" stroke-width="10" stroke-linecap="round"/>
  <circle cx="216" cy="522" r="26" fill="#FFB800"/>
  <circle cx="616" cy="154" r="20" fill="#FFFFFF"/>
  <circle cx="792" cy="130" r="20" fill="#FFFFFF"/>
  <circle cx="754" cy="602" r="20" fill="#FFFFFF"/>
  <rect x="128" y="476" width="128" height="54" rx="27" fill="#FFFFFF" fill-opacity=".1" stroke="#FFFFFF" stroke-opacity=".12"/>
  <rect x="560" y="100" width="126" height="50" rx="25" fill="#FFFFFF" fill-opacity=".1" stroke="#FFFFFF" stroke-opacity=".12"/>
  <rect x="724" y="78" width="120" height="50" rx="25" fill="#FFFFFF" fill-opacity=".1" stroke="#FFFFFF" stroke-opacity=".12"/>
  <rect x="676" y="560" width="142" height="50" rx="25" fill="#FFFFFF" fill-opacity=".1" stroke="#FFFFFF" stroke-opacity=".12"/>
  <text x="154" y="511" fill="#0A192F" font-family="Inter, Roboto, sans-serif" font-size="18" font-weight="800">Adelaide</text>
  <text x="584" y="131" fill="#FFFFFF" font-family="Inter, Roboto, sans-serif" font-size="18" font-weight="800">Melbourne</text>
  <text x="752" y="110" fill="#FFFFFF" font-family="Inter, Roboto, sans-serif" font-size="18" font-weight="800">Sydney</text>
  <text x="702" y="592" fill="#FFFFFF" font-family="Inter, Roboto, sans-serif" font-size="18" font-weight="800">Custom route</text>
  <path d="M142 158H302" fill="none" stroke="#FFFFFF" stroke-opacity=".2" stroke-width="18" stroke-linecap="round"/>
  <path d="M142 198H414" fill="none" stroke="#FFFFFF" stroke-opacity=".12" stroke-width="14" stroke-linecap="round"/>
  <path d="M142 232H358" fill="none" stroke="#FFFFFF" stroke-opacity=".12" stroke-width="14" stroke-linecap="round"/>
</svg>
