<svg xmlns="http://www.w3.org/2000/svg" width="960" height="720" aria-labelledby="title desc" role="img" viewBox="0 0 960 720"><title id="title">Premium moving truck illustration</title><desc id="desc">Stylised ZQ Removals truck illustration for local, packing, and contact pages.</desc><defs><linearGradient id="bg" x1="0" x2="1" y1="0" y2="1"><stop offset="0%" stop-color="#081527"/><stop offset="100%" stop-color="#163559"/></linearGradient><linearGradient id="accent" x1="0" x2="1" y1="0" y2="1"><stop offset="0%" stop-color="#FFB800"/><stop offset="100%" stop-color="#FFD466"/></linearGradient><linearGradient id="body" x1="0" x2="0" y1="0" y2="1"><stop offset="0%" stop-color="#FFF"/><stop offset="100%" stop-color="#EAF1F8"/></linearGradient></defs><rect width="960" height="720" fill="#F8FBFF" rx="36"/><path fill="url(#bg)" d="M0 144C110 92 242 86 348 128C434 162 496 220 582 246C688 278 800 250 960 166V720H0Z"/><circle cx="784" cy="138" r="124" fill="#FFB800" opacity=".18"/><circle cx="120" cy="102" r="92" fill="#FFF" opacity=".08"/><path fill="none" stroke="#D9E2EC" stroke-linecap="round" stroke-width="12" d="M92 568H854"/><path fill="none" stroke="#FFB800" stroke-dasharray="14 20" stroke-linecap="round" stroke-opacity=".5" stroke-width="8" d="M142 498H828"/><rect width="448" height="174" x="168" y="292" fill="url(#body)" rx="28"/><rect width="162" height="134" x="534" y="332" fill="url(#body)" rx="24"/><rect width="392" height="108" x="198" y="320" fill="#E2ECF7" rx="18"/><rect width="192" height="40" x="538" y="292" fill="url(#accent)" rx="20"/><path fill="none" stroke="#0A192F" stroke-linecap="round" stroke-opacity=".18" stroke-width="8" d="M226 350H564"/><path fill="none" stroke="#0A192F" stroke-linecap="round" stroke-opacity=".12" stroke-width="8" d="M226 382H466"/><path fill="none" stroke="#0A192F" stroke-linecap="round" stroke-opacity=".12" stroke-width="8" d="M226 414H430"/><circle cx="286" cy="494" r="56" fill="#0A192F"/><circle cx="604" cy="494" r="56" fill="#0A192F"/><circle cx="286" cy="494" r="24" fill="#FFF"/><circle cx="604" cy="494" r="24" fill="#FFF"/><path fill="none" stroke="#FFF" stroke-linecap="round" stroke-opacity=".32" stroke-width="10" d="M126 222C184 194 252 190 304 206"/><path fill="none" stroke="#FFF" stroke-linecap="round" stroke-opacity=".24" stroke-width="10" d="M668 230C724 206 786 202 840 216"/><rect width="168" height="42" x="148" y="126" fill="#FFF" fill-opacity=".08" stroke="#FFF" stroke-opacity=".12" rx="21"/><rect width="252" height="54" x="148" y="184" fill="#FFF" fill-opacity=".08" stroke="#FFF" stroke-opacity=".12" rx="27"/></svg>