<svg xmlns="http://www.w3.org/2000/svg" width="960" height="720" aria-labelledby="title desc" role="img" viewBox="0 0 960 720"><title id="title">Interstate route logistics illustration</title><desc id="desc">Stylised interstate route illustration showing Adelaide pickup moving toward a destination delivery window.</desc><defs><linearGradient id="sky" x1="0" x2="0" y1="0" y2="1"><stop offset="0%" stop-color="#EAF1F8"/><stop offset="100%" stop-color="#FFF"/></linearGradient><linearGradient id="road" x1="0" x2="1" y1="0" y2="0"><stop offset="0%" stop-color="#0A192F"/><stop offset="100%" stop-color="#1E3B63"/></linearGradient><linearGradient id="truck" x1="0" x2="0" y1="0" y2="1"><stop offset="0%" stop-color="#FFF"/><stop offset="100%" stop-color="#EAF1F8"/></linearGradient></defs><rect width="960" height="720" fill="url(#sky)" rx="36"/><circle cx="780" cy="126" r="106" fill="#FFB800" opacity=".16"/><path fill="url(#road)" d="M0 528C154 482 286 462 410 472C566 484 704 544 960 654V720H0Z"/><path fill="none" stroke="#FFB800" stroke-dasharray="20 18" stroke-linecap="round" stroke-width="12" d="M80 582C248 528 392 512 532 522C664 532 792 572 932 634"/><path fill="none" stroke="#D9E2EC" stroke-linecap="round" stroke-width="10" d="M106 612H884"/><rect width="424" height="154" x="188" y="342" fill="url(#truck)" rx="26"/><rect width="148" height="114" x="530" y="382" fill="url(#truck)" rx="22"/><rect width="366" height="88" x="214" y="366" fill="#E2ECF7" rx="18"/><rect width="182" height="40" x="530" y="342" fill="#FFB800" rx="20"/><path fill="none" stroke="#0A192F" stroke-linecap="round" stroke-opacity=".18" stroke-width="8" d="M236 392H548"/><path fill="none" stroke="#0A192F" stroke-linecap="round" stroke-opacity=".12" stroke-width="8" d="M236 424H460"/><circle cx="296" cy="520" r="52" fill="#0A192F"/><circle cx="592" cy="520" r="52" fill="#0A192F"/><circle cx="296" cy="520" r="22" fill="#FFF"/><circle cx="592" cy="520" r="22" fill="#FFF"/><rect width="122" height="46" x="122" y="132" fill="#FFF" fill-opacity=".8" stroke="#D9E2EC" rx="23"/><rect width="152" height="46" x="698" y="126" fill="#0A192F" fill-opacity=".9" rx="23"/><text x="154" y="162" fill="#0A192F" font-family="Inter, Roboto, sans-serif" font-size="18" font-weight="800">Adelaide</text><text x="728" y="156" fill="#FFF" font-family="Inter, Roboto, sans-serif" font-size="18" font-weight="800">Destination</text><path fill="none" stroke="#0A192F" stroke-linecap="round" stroke-opacity=".14" stroke-width="14" d="M128 214H338"/><path fill="none" stroke="#0A192F" stroke-linecap="round" stroke-opacity=".1" stroke-width="14" d="M128 248H292"/></svg>