<svg xmlns="http://www.w3.org/2000/svg" width="960" height="720" viewBox="0 0 960 720" role="img" aria-labelledby="title desc">
  <title id="title">Premium moving truck illustration</title>
  <desc id="desc">Stylised ZQ Removals truck illustration for local, packing, and contact pages.</desc>
  <defs>
    <linearGradient id="bg" x1="0" y1="0" x2="1" y2="1">
      <stop offset="0%" stop-color="#081527"/>
      <stop offset="100%" stop-color="#163559"/>
    </linearGradient>
    <linearGradient id="accent" x1="0" y1="0" x2="1" y2="1">
      <stop offset="0%" stop-color="#FFB800"/>
      <stop offset="100%" stop-color="#FFD466"/>
    </linearGradient>
    <linearGradient id="body" x1="0" y1="0" x2="0" y2="1">
      <stop offset="0%" stop-color="#FFFFFF"/>
      <stop offset="100%" stop-color="#EAF1F8"/>
    </linearGradient>
  </defs>
  <rect width="960" height="720" rx="36" fill="#F8FBFF"/>
  <path d="M0 144C110 92 242 86 348 128C434 162 496 220 582 246C688 278 800 250 960 166V720H0Z" fill="url(#bg)"/>
  <circle cx="784" cy="138" r="124" fill="#FFB800" opacity=".18"/>
  <circle cx="120" cy="102" r="92" fill="#FFFFFF" opacity=".08"/>
  <path d="M92 568H854" fill="none" stroke="#D9E2EC" stroke-width="12" stroke-linecap="round"/>
  <path d="M142 498H828" fill="none" stroke="#FFB800" stroke-opacity=".5" stroke-width="8" stroke-dasharray="14 20" stroke-linecap="round"/>
  <rect x="168" y="292" width="448" height="174" rx="28" fill="url(#body)"/>
  <rect x="534" y="332" width="162" height="134" rx="24" fill="url(#body)"/>
  <rect x="198" y="320" width="392" height="108" rx="18" fill="#E2ECF7"/>
  <rect x="538" y="292" width="192" height="40" rx="20" fill="url(#accent)"/>
  <path d="M226 350H564" fill="none" stroke="#0A192F" stroke-opacity=".18" stroke-width="8" stroke-linecap="round"/>
  <path d="M226 382H466" fill="none" stroke="#0A192F" stroke-opacity=".12" stroke-width="8" stroke-linecap="round"/>
  <path d="M226 414H430" fill="none" stroke="#0A192F" stroke-opacity=".12" stroke-width="8" stroke-linecap="round"/>
  <circle cx="286" cy="494" r="56" fill="#0A192F"/>
  <circle cx="604" cy="494" r="56" fill="#0A192F"/>
  <circle cx="286" cy="494" r="24" fill="#FFFFFF"/>
  <circle cx="604" cy="494" r="24" fill="#FFFFFF"/>
  <path d="M126 222C184 194 252 190 304 206" fill="none" stroke="#FFFFFF" stroke-opacity=".32" stroke-width="10" stroke-linecap="round"/>
  <path d="M668 230C724 206 786 202 840 216" fill="none" stroke="#FFFFFF" stroke-opacity=".24" stroke-width="10" stroke-linecap="round"/>
  <rect x="148" y="126" width="168" height="42" rx="21" fill="#FFFFFF" fill-opacity=".08" stroke="#FFFFFF" stroke-opacity=".12"/>
  <rect x="148" y="184" width="252" height="54" rx="27" fill="#FFFFFF" fill-opacity=".08" stroke="#FFFFFF" stroke-opacity=".12"/>
</svg>
