<svg xmlns="http://www.w3.org/2000/svg" width="960" height="720" viewBox="0 0 960 720" role="img" aria-labelledby="title desc">
  <title id="title">Interstate route logistics illustration</title>
  <desc id="desc">Stylised interstate route illustration showing Adelaide pickup moving toward a destination delivery window.</desc>
  <defs>
    <linearGradient id="sky" x1="0" y1="0" x2="0" y2="1">
      <stop offset="0%" stop-color="#EAF1F8"/>
      <stop offset="100%" stop-color="#FFFFFF"/>
    </linearGradient>
    <linearGradient id="road" x1="0" y1="0" x2="1" y2="0">
      <stop offset="0%" stop-color="#0A192F"/>
      <stop offset="100%" stop-color="#1E3B63"/>
    </linearGradient>
    <linearGradient id="truck" x1="0" y1="0" x2="0" y2="1">
      <stop offset="0%" stop-color="#FFFFFF"/>
      <stop offset="100%" stop-color="#EAF1F8"/>
    </linearGradient>
  </defs>
  <rect width="960" height="720" rx="36" fill="url(#sky)"/>
  <circle cx="780" cy="126" r="106" fill="#FFB800" opacity=".16"/>
  <path d="M0 528C154 482 286 462 410 472C566 484 704 544 960 654V720H0Z" fill="url(#road)"/>
  <path d="M80 582C248 528 392 512 532 522C664 532 792 572 932 634" fill="none" stroke="#FFB800" stroke-width="12" stroke-dasharray="20 18" stroke-linecap="round"/>
  <path d="M106 612H884" fill="none" stroke="#D9E2EC" stroke-width="10" stroke-linecap="round"/>
  <rect x="188" y="342" width="424" height="154" rx="26" fill="url(#truck)"/>
  <rect x="530" y="382" width="148" height="114" rx="22" fill="url(#truck)"/>
  <rect x="214" y="366" width="366" height="88" rx="18" fill="#E2ECF7"/>
  <rect x="530" y="342" width="182" height="40" rx="20" fill="#FFB800"/>
  <path d="M236 392H548" fill="none" stroke="#0A192F" stroke-opacity=".18" stroke-width="8" stroke-linecap="round"/>
  <path d="M236 424H460" fill="none" stroke="#0A192F" stroke-opacity=".12" stroke-width="8" stroke-linecap="round"/>
  <circle cx="296" cy="520" r="52" fill="#0A192F"/>
  <circle cx="592" cy="520" r="52" fill="#0A192F"/>
  <circle cx="296" cy="520" r="22" fill="#FFFFFF"/>
  <circle cx="592" cy="520" r="22" fill="#FFFFFF"/>
  <rect x="122" y="132" width="122" height="46" rx="23" fill="#FFFFFF" fill-opacity=".8" stroke="#D9E2EC"/>
  <rect x="698" y="126" width="152" height="46" rx="23" fill="#0A192F" fill-opacity=".9"/>
  <text x="154" y="162" fill="#0A192F" font-family="Inter, Roboto, sans-serif" font-size="18" font-weight="800">Adelaide</text>
  <text x="728" y="156" fill="#FFFFFF" font-family="Inter, Roboto, sans-serif" font-size="18" font-weight="800">Destination</text>
  <path d="M128 214H338" fill="none" stroke="#0A192F" stroke-opacity=".14" stroke-width="14" stroke-linecap="round"/>
  <path d="M128 248H292" fill="none" stroke="#0A192F" stroke-opacity=".1" stroke-width="14" stroke-linecap="round"/>
</svg>
