<svg xmlns="http://www.w3.org/2000/svg" width="960" height="720" viewBox="0 0 960 720" role="img" aria-labelledby="title desc">
  <title id="title">Route logistics placeholder</title>
  <desc id="desc">Stylised interstate route placeholder for an Adelaide to Melbourne moving page.</desc>
  <defs>
    <linearGradient id="sky" x1="0" y1="0" x2="0" y2="1">
      <stop offset="0%" stop-color="#EAF1F8"/>
      <stop offset="100%" stop-color="#FFFFFF"/>
    </linearGradient>
    <linearGradient id="road" x1="0" y1="0" x2="1" y2="0">
      <stop offset="0%" stop-color="#0A192F"/>
      <stop offset="100%" stop-color="#1E3B63"/>
    </linearGradient>
  </defs>
  <rect width="960" height="720" fill="url(#sky)"/>
  <path d="M0 520C142 476 256 454 372 458C518 462 652 506 960 640V720H0Z" fill="url(#road)"/>
  <path d="M0 584C188 522 324 500 470 512C596 522 748 568 960 658" fill="none" stroke="#FFB800" stroke-width="12" stroke-dasharray="18 18" stroke-linecap="round"/>
  <rect x="180" y="334" width="420" height="150" rx="24" fill="#FFFFFF"/>
  <rect x="518" y="372" width="138" height="112" rx="20" fill="#FFFFFF"/>
  <rect x="202" y="356" width="370" height="88" rx="18" fill="#EAF1F8"/>
  <rect x="518" y="334" width="148" height="42" rx="20" fill="#FFB800"/>
  <circle cx="282" cy="506" r="48" fill="#0A192F"/>
  <circle cx="580" cy="506" r="48" fill="#0A192F"/>
  <circle cx="282" cy="506" r="22" fill="#FFFFFF"/>
  <circle cx="580" cy="506" r="22" fill="#FFFFFF"/>
  <text x="128" y="120" fill="#0A192F" font-family="Inter, Roboto, sans-serif" font-size="34" font-weight="700">Adelaide to Melbourne route placeholder</text>
  <text x="128" y="162" fill="#5B6472" font-family="Inter, Roboto, sans-serif" font-size="20">Replace with route-specific hero photography or linehaul imagery.</text>
  <text x="168" y="618" fill="#FFFFFF" font-family="Inter, Roboto, sans-serif" font-size="22" font-weight="700">Adelaide</text>
  <text x="736" y="644" fill="#FFFFFF" font-family="Inter, Roboto, sans-serif" font-size="22" font-weight="700">Melbourne</text>
</svg>
